<?xml version="1.0" standalone="no"?>
<!DOCTYPE svg PUBLIC "-//W3C//DTD SVG 20010904//EN"
 "http://www.w3.org/TR/2001/REC-SVG-20010904/DTD/svg10.dtd">
<svg version="1.0" xmlns="http://www.w3.org/2000/svg"
 width="700.000000pt" height="700.000000pt" viewBox="0 0 700.000000 700.000000"
 preserveAspectRatio="xMidYMid meet">
<metadata>
Created by potrace 1.11, written by Peter Selinger 2001-2013
</metadata>
<g transform="translate(0.000000,700.000000) scale(0.100000,-0.100000)"
fill="#000000" stroke="none">
<path d="M1419 6296 c-2 -2 -71 -7 -154 -10 -82 -4 -166 -8 -185 -10 -19 -3
-71 -7 -115 -10 -162 -12 -211 -19 -222 -30 -9 -9 -13 -296 -4 -297 80 -11
157 -47 197 -91 34 -37 67 -96 83 -147 7 -23 10 -726 8 -2330 l-2 -2296 -30
-59 c-46 -92 -135 -157 -215 -158 -46 0 -41 19 -42 -178 l0 -125 1143 0 1144
0 0 150 0 150 -57 1 c-85 1 -148 51 -197 154 l-26 55 -1 1096 -1 1096 111 -53
c239 -113 429 -156 696 -155 398 1 787 166 1075 455 246 248 388 536 441 896
9 65 11 294 3 354 -16 116 -21 145 -40 218 -101 400 -370 757 -724 959 -180
104 -322 151 -605 204 -245 45 -239 44 -289 51 -25 3 -47 7 -50 9 -3 2 -30 6
-60 10 -30 4 -61 8 -70 10 -53 10 -157 23 -226 29 -185 17 -270 23 -395 31
-58 4 -127 9 -155 12 -62 5 -1031 14 -1036 9z m676 -404 c116 -61 160 -148
164 -322 2 -89 0 -98 -25 -135 -31 -45 -128 -230 -137 -260 -3 -11 -17 -51
-31 -90 -84 -235 -104 -540 -51 -802 33 -164 139 -423 214 -525 l31 -42 -1
-1311 c0 -1270 -1 -1312 -20 -1360 -35 -92 -130 -167 -229 -179 -91 -11 -207
43 -258 120 -53 81 -50 -63 -50 2419 1 2248 1 2301 20 2345 31 72 89 124 173
156 47 18 154 11 200 -14z"/>
</g>
</svg>
