<svg width="48" height="48" viewBox="0 0 12.7 12.7" xmlns="http://www.w3.org/2000/svg"><path d="M1.332 1.376v.559h.076a.56.56 0 01.454.556v.026h.006v8.12a.566.566 0 01-.394.508h-.135v.558h4.149v-.558h-.206a.572.572 0 01-.305-.51c.001-.021.002-.043.005-.064h-.005V2.366a.562.562 0 01.328-.43l1.632-.323s-.992-.194-1.431-.237c-2.509-.243-4.175 0-4.175 0h.001zm2.255.583c.28 0 .506.233.507.52v.038H4.1v8.123a.516.516 0 01-.507.495.515.515 0 01-.505-.481V2.38a.51.51 0 01.498-.421h.001z" fill="#4a5568"/><circle cx="6.406" cy="4.368" r="2.806" fill="#4a5568" fill-rule="evenodd"/></svg>